<?xml version="1.0" standalone="no"?><!DOCTYPE svg PUBLIC "-//W3C//DTD SVG 1.1//EN" "http://www.w3.org/Graphics/SVG/1.1/DTD/svg11.dtd"><svg t="1547438240086" class="icon" style="" viewBox="0 0 1024 1024" version="1.1" xmlns="http://www.w3.org/2000/svg" p-id="1200" xmlns:xlink="http://www.w3.org/1999/xlink" width="200" height="200"><defs><style type="text/css"></style></defs><path d="M766.1 611.1c12.7 9 22.1 14.4 29.9 21.5 32.3 29.4 36.7 69.7 11.7 103.1-23.5 31.5-65.1 40.4-98.4 21-35.4-20.6-48-60.2-30.8-99.3 6.2-14 14.4-27.1 21.1-40.9 67.7-140.6 30.4-315.1-87.4-409.2C500.9 118.4 351.8 107 228 177.9 108.7 246.3 46.3 381.2 68.4 522.7c38.4 245.5 258.4 403.6 504.7 363.4 87.8-14.3 161-56 227.8-112.8 53-45.1 102.4-32.1 132.4 31.3 2.3 4.9 7.8 12.3 11.4 10.8 27.7-12 17.9-96.4-33.2-116.2-24.5-9.5-30.7-23.5-35.7-46.3-11-50.3-57.8-68.5-109.7-41.8z" p-id="1201" fill="#d4237a"></path></svg>